<svg version="1.2" xmlns="http://www.w3.org/2000/svg" viewBox="0 0 1441 177" width="1441" height="177"><style>.a{fill:#2255b1}</style><path class="a" d="m1 0v177h720.6v-177c-8.2 0-12.5 5.2-16.2 9.8-3.6 4.4-7 8.7-13.8 8.7-6.8 0-10.2-4.3-13.8-8.7-3.8-4.6-8-9.8-16.2-9.8-8.3 0-12.5 5.2-16.2 9.8-3.7 4.4-7.1 8.7-13.9 8.7-6.7 0-10.2-4.3-13.8-8.7-3.7-4.6-7.9-9.8-16.2-9.8-8.2 0-12.4 5.2-16.2 9.8-3.6 4.4-7 8.7-13.8 8.7-6.8 0-10.2-4.3-13.8-8.7-3.8-4.6-8-9.8-16.2-9.8-8.3 0-12.5 5.2-16.2 9.8-3.7 4.4-7.1 8.7-13.8 8.7-6.8 0-10.2-4.3-13.9-8.7-3.7-4.6-7.9-9.8-16.2-9.8-8.2 0-12.4 5.2-16.2 9.8-3.6 4.4-7 8.7-13.8 8.7-6.8 0-10.2-4.3-13.8-8.7-3.8-4.6-8-9.8-16.2-9.8-8.3 0-12.5 5.2-16.2 9.8-3.7 4.4-7.1 8.7-13.8 8.7-6.8 0-10.3-4.3-13.9-8.7-3.7-4.6-7.9-9.8-16.2-9.8-8.2 0-12.4 5.2-16.2 9.8-3.6 4.4-7 8.7-13.8 8.7-6.8 0-10.2-4.3-13.8-8.7-3.7-4.6-8-9.8-16.2-9.8-8.3 0-12.5 5.2-16.2 9.8-3.6 4.4-7.1 8.7-13.8 8.7-6.8 0-10.2-4.3-13.9-8.7-3.7-4.6-7.9-9.8-16.2-9.8-8.2 0-12.4 5.2-16.2 9.8-3.6 4.4-7 8.7-13.8 8.7-6.8 0-10.2-4.3-13.8-8.7-3.8-4.6-8-9.8-16.2-9.8-8.3 0-12.5 5.2-16.2 9.8-3.6 4.4-7.1 8.7-13.9 8.7-6.7 0-10.1-4.3-13.8-8.7-3.7-4.6-7.9-9.8-16.2-9.8-8.2 0-12.5 5.2-16.2 9.8-3.6 4.4-7 8.7-13.8 8.7-6.8 0-10.2-4.3-13.8-8.7-3.8-4.6-8-9.8-16.2-9.8-8.3 0-12.5 5.2-16.2 9.8-3.7 4.4-7.1 8.7-13.9 8.7-6.8 0-10.2-4.3-13.8-8.7-3.7-4.6-8-9.8-16.2-9.8zm719.4 0v177h720.6v-177c-8.2 0-12.5 5.2-16.2 9.8-3.6 4.4-7.1 8.7-13.8 8.7-6.8 0-10.2-4.3-13.8-8.7-3.8-4.6-8-9.8-16.3-9.8-8.2 0-12.4 5.2-16.2 9.8-3.6 4.4-7 8.7-13.8 8.7-6.8 0-10.2-4.3-13.8-8.7-3.7-4.6-8-9.8-16.2-9.8-8.2 0-12.5 5.2-16.2 9.8-3.6 4.4-7.1 8.7-13.8 8.7-6.8 0-10.2-4.3-13.9-8.7-3.7-4.6-7.9-9.8-16.1-9.8-8.3 0-12.5 5.2-16.3 9.8-3.6 4.4-7 8.7-13.8 8.7-6.8 0-10.2-4.3-13.8-8.7-3.7-4.6-8-9.8-16.2-9.8-8.2 0-12.5 5.2-16.2 9.8-3.6 4.4-7 8.7-13.8 8.7-6.8 0-10.2-4.3-13.8-8.7-3.8-4.6-8-9.8-16.2-9.8-8.3 0-12.5 5.2-16.3 9.8-3.6 4.4-7 8.7-13.8 8.7-6.8 0-10.2-4.3-13.8-8.7-3.7-4.6-8-9.8-16.2-9.8-8.2 0-12.5 5.2-16.2 9.8-3.6 4.4-7 8.7-13.8 8.7-6.8 0-10.2-4.3-13.8-8.7-3.8-4.6-8-9.8-16.2-9.8-8.3 0-12.5 5.2-16.2 9.8-3.7 4.4-7.1 8.7-13.9 8.7-6.7 0-10.2-4.3-13.8-8.7-3.7-4.6-8-9.8-16.2-9.8-8.2 0-12.5 5.2-16.2 9.8-3.6 4.4-7 8.7-13.8 8.7-6.8 0-10.2-4.3-13.8-8.7-3.8-4.6-8-9.8-16.2-9.8-8.3 0-12.5 5.2-16.3 9.8-3.6 4.4-7 8.7-13.8 8.7-6.7 0-10.2-4.3-13.8-8.7-3.7-4.6-8-9.8-16.2-9.8-8.2 0-12.5 5.2-16.2 9.8-3.6 4.4-7.1 8.7-13.8 8.7-6.8 0-10.2-4.3-13.9-8.7-3.7-4.6-7.9-9.8-16.2-9.8-8.2 0-12.4 5.2-16.2 9.8-3.6 4.4-7 8.7-13.8 8.7-6.8 0-10.2-4.3-13.8-8.7-3.8-4.6-8-9.8-16.2-9.8z"/></svg>