<svg xmlns="http://www.w3.org/2000/svg" width="487.383" height="608.859" viewBox="1.894 1.895 487.383 608.859"><path d="m366.682 568.148-27.961 15.489-149.811 15.707-108.83 11.41-18.434-17.851 15.23-55.505-40.274-.013-25.15-16.217-9.558-98.277 9.364-45.111-6.287-84.844-2.002-50.882 36.219-11.38 2.31-26.746 18.973-37.206 18.595-41.098 16.649-40.91 16.297-54.625 77.802-28.194 42.923 27.258 32.044 56.8 12.773 60.64 13.652 59.57 36.774 34.732 28.233 27.704 44.922 7.418 61.707-11.895 26.435 9.217-2.864 51.355-17.673 131.375-73.41 22.855-21.082 25.624-7.566 63.6Z" fill="rgba(234, 207, 63, 1)" fill-rule="evenodd" data-name="Shape"/></svg>